<svg xmlns="http://www.w3.org/2000/svg" viewBox="0 0 64 64"><rect width="64" height="64" rx="13" fill="#04342C"/><g fill="none" stroke="#2FB089" stroke-width="1.3" opacity="0.5" stroke-linejoin="round"><line x1="47.0" y1="32.0" x2="39.5" y2="45.0"/><line x1="39.5" y1="45.0" x2="24.5" y2="45.0"/><line x1="24.5" y1="45.0" x2="17.0" y2="32.0"/><line x1="17.0" y1="32.0" x2="24.5" y2="19.0"/><line x1="24.5" y1="19.0" x2="39.5" y2="19.0"/><line x1="39.5" y1="19.0" x2="47.0" y2="32.0"/><line x1="32" y1="32" x2="47.0" y2="32.0"/><line x1="32" y1="32" x2="39.5" y2="45.0"/><line x1="32" y1="32" x2="24.5" y2="45.0"/><line x1="32" y1="32" x2="17.0" y2="32.0"/><line x1="32" y1="32" x2="24.5" y2="19.0"/><line x1="32" y1="32" x2="39.5" y2="19.0"/></g><g fill="#D5F0E2"><circle cx="47.0" cy="32.0" r="2.3"/><circle cx="39.5" cy="45.0" r="2.3"/><circle cx="24.5" cy="45.0" r="2.3"/><circle cx="17.0" cy="32.0" r="2.3"/><circle cx="24.5" cy="19.0" r="2.3"/><circle cx="39.5" cy="19.0" r="2.3"/></g><circle cx="32" cy="32" r="2.8" fill="#EAF8F2"/></svg>